<mxfile host="app.diagrams.net" modified="2022-01-10T15:18:21.897Z" agent="5.0 (Windows NT 10.0; Win64; x64) AppleWebKit/537.36 (KHTML, like Gecko) Chrome/97.0.4692.71 Safari/537.36" etag="oZjJKPnNZkBn301ZJMpW" version="16.2.4" type="github">
  <diagram id="0yxoZZdaeAvxIObHSNhA" name="Page-1">
    <mxGraphModel dx="1715" dy="479" grid="0" gridSize="10" guides="1" tooltips="1" connect="1" arrows="1" fold="1" page="1" pageScale="1" pageWidth="850" pageHeight="1100" math="0" shadow="0">
      <root>
        <mxCell id="0" />
        <mxCell id="1" parent="0" />
        <mxCell id="A2qnpwEKN-Jw2Tp_X-vN-10" value="" style="group" parent="1" vertex="1" connectable="0">
          <mxGeometry x="50" y="58" width="270" height="192" as="geometry" />
        </mxCell>
        <mxCell id="A2qnpwEKN-Jw2Tp_X-vN-8" style="edgeStyle=orthogonalEdgeStyle;rounded=0;orthogonalLoop=1;jettySize=auto;html=1;" parent="A2qnpwEKN-Jw2Tp_X-vN-10" edge="1">
          <mxGeometry relative="1" as="geometry">
            <mxPoint x="39.5" y="40" as="targetPoint" />
            <mxPoint x="39.5" y="-30" as="sourcePoint" />
            <Array as="points">
              <mxPoint x="39.5" />
              <mxPoint x="39.5" />
            </Array>
          </mxGeometry>
        </mxCell>
        <mxCell id="A2qnpwEKN-Jw2Tp_X-vN-9" value="&lt;h1 style=&quot;font-size: 15px&quot;&gt;reset = 1&lt;/h1&gt;" style="text;html=1;strokeColor=none;fillColor=none;align=center;verticalAlign=middle;whiteSpace=wrap;rounded=0;fontFamily=Times New Roman;fontSize=31;rotation=0;" parent="A2qnpwEKN-Jw2Tp_X-vN-10" vertex="1">
          <mxGeometry x="-72" y="4" width="160" height="10" as="geometry" />
        </mxCell>
        <mxCell id="mmlGPViRKiMGI0Nl_u0o-4" value="" style="group" parent="A2qnpwEKN-Jw2Tp_X-vN-10" vertex="1" connectable="0">
          <mxGeometry y="40" width="240" height="152" as="geometry" />
        </mxCell>
        <mxCell id="A2qnpwEKN-Jw2Tp_X-vN-1" value="&lt;h1 style=&quot;font-size: 31px&quot;&gt;A&lt;/h1&gt;" style="ellipse;whiteSpace=wrap;html=1;aspect=fixed;" parent="mmlGPViRKiMGI0Nl_u0o-4" vertex="1">
          <mxGeometry width="80" height="80" as="geometry" />
        </mxCell>
        <mxCell id="mmlGPViRKiMGI0Nl_u0o-3" value="&lt;h1 style=&quot;font-size: 15px&quot;&gt;a=0, b=0, s_sel=00&lt;/h1&gt;" style="text;html=1;strokeColor=none;fillColor=none;align=center;verticalAlign=middle;whiteSpace=wrap;rounded=0;fontFamily=Times New Roman;fontSize=31;" parent="mmlGPViRKiMGI0Nl_u0o-4" vertex="1">
          <mxGeometry x="80" y="15" width="160" height="10" as="geometry" />
        </mxCell>
        <mxCell id="mmlGPViRKiMGI0Nl_u0o-31" value="&lt;h1 style=&quot;font-size: 15px&quot;&gt;start=1&lt;/h1&gt;" style="text;html=1;strokeColor=none;fillColor=none;align=center;verticalAlign=middle;whiteSpace=wrap;rounded=0;fontFamily=Times New Roman;fontSize=31;" parent="mmlGPViRKiMGI0Nl_u0o-4" vertex="1">
          <mxGeometry x="78" width="160" height="10" as="geometry" />
        </mxCell>
        <mxCell id="dh1mfTihTAKXQSbTQ7IS-11" value="a_msw_is_0 = 1" style="text;html=1;align=center;verticalAlign=middle;resizable=0;points=[];autosize=1;strokeColor=#99FFCC;fillColor=#ffe6cc;" vertex="1" parent="mmlGPViRKiMGI0Nl_u0o-4">
          <mxGeometry x="101" y="113" width="97" height="18" as="geometry" />
        </mxCell>
        <mxCell id="dh1mfTihTAKXQSbTQ7IS-12" value="b_msw_is_0 = 1" style="text;html=1;align=center;verticalAlign=middle;resizable=0;points=[];autosize=1;strokeColor=none;fillColor=#ffe6cc;" vertex="1" parent="mmlGPViRKiMGI0Nl_u0o-4">
          <mxGeometry x="101" y="84" width="97" height="18" as="geometry" />
        </mxCell>
        <mxCell id="dh1mfTihTAKXQSbTQ7IS-14" value="&lt;h1 style=&quot;font-size: 15px&quot;&gt;busy=0&lt;/h1&gt;" style="text;html=1;strokeColor=none;fillColor=none;align=center;verticalAlign=middle;whiteSpace=wrap;rounded=0;fontFamily=Times New Roman;fontSize=31;" vertex="1" parent="mmlGPViRKiMGI0Nl_u0o-4">
          <mxGeometry x="72" y="66" width="160" height="10" as="geometry" />
        </mxCell>
        <mxCell id="dh1mfTihTAKXQSbTQ7IS-16" value="&lt;h1 style=&quot;font-size: 15px&quot;&gt;upd_production=1&lt;/h1&gt;" style="text;html=1;strokeColor=none;fillColor=none;align=center;verticalAlign=middle;whiteSpace=wrap;rounded=0;fontFamily=Times New Roman;fontSize=31;" vertex="1" parent="mmlGPViRKiMGI0Nl_u0o-4">
          <mxGeometry x="69.5" y="142" width="160" height="10" as="geometry" />
        </mxCell>
        <mxCell id="mmlGPViRKiMGI0Nl_u0o-33" value="&lt;h1 style=&quot;font-size: 15px&quot;&gt;busy=1, clr_production=1&lt;/h1&gt;" style="text;html=1;strokeColor=none;fillColor=none;align=center;verticalAlign=middle;whiteSpace=wrap;rounded=0;fontFamily=Times New Roman;fontSize=31;" parent="A2qnpwEKN-Jw2Tp_X-vN-10" vertex="1">
          <mxGeometry x="68" y="23" width="179" height="10" as="geometry" />
        </mxCell>
        <mxCell id="mmlGPViRKiMGI0Nl_u0o-37" value="&lt;h1 style=&quot;font-size: 15px&quot;&gt;&lt;br&gt;&lt;/h1&gt;" style="text;html=1;strokeColor=none;fillColor=none;align=center;verticalAlign=middle;whiteSpace=wrap;rounded=0;fontFamily=Times New Roman;fontSize=31;" parent="A2qnpwEKN-Jw2Tp_X-vN-10" vertex="1">
          <mxGeometry x="99" y="7" width="160" height="10" as="geometry" />
        </mxCell>
        <mxCell id="A2qnpwEKN-Jw2Tp_X-vN-11" style="edgeStyle=orthogonalEdgeStyle;rounded=0;orthogonalLoop=1;jettySize=auto;html=1;exitX=1;exitY=0.5;exitDx=0;exitDy=0;fontFamily=Times New Roman;fontSize=15;entryX=0;entryY=0.5;entryDx=0;entryDy=0;" parent="1" source="A2qnpwEKN-Jw2Tp_X-vN-1" target="mmlGPViRKiMGI0Nl_u0o-9" edge="1">
          <mxGeometry relative="1" as="geometry">
            <mxPoint x="250" y="138" as="targetPoint" />
            <Array as="points" />
          </mxGeometry>
        </mxCell>
        <mxCell id="mmlGPViRKiMGI0Nl_u0o-5" value="" style="group" parent="1" vertex="1" connectable="0">
          <mxGeometry x="280" y="58" width="240" height="120" as="geometry" />
        </mxCell>
        <mxCell id="mmlGPViRKiMGI0Nl_u0o-8" value="" style="group" parent="mmlGPViRKiMGI0Nl_u0o-5" vertex="1" connectable="0">
          <mxGeometry y="40" width="240" height="80" as="geometry" />
        </mxCell>
        <mxCell id="mmlGPViRKiMGI0Nl_u0o-15" value="" style="group" parent="mmlGPViRKiMGI0Nl_u0o-8" vertex="1" connectable="0">
          <mxGeometry width="240" height="80" as="geometry" />
        </mxCell>
        <mxCell id="mmlGPViRKiMGI0Nl_u0o-9" value="&lt;h1 style=&quot;font-size: 31px&quot;&gt;B&lt;/h1&gt;" style="ellipse;whiteSpace=wrap;html=1;aspect=fixed;" parent="mmlGPViRKiMGI0Nl_u0o-15" vertex="1">
          <mxGeometry width="80" height="80" as="geometry" />
        </mxCell>
        <mxCell id="mmlGPViRKiMGI0Nl_u0o-10" value="&lt;h1 style=&quot;font-size: 15px&quot;&gt;a=1, b=0, s_sel=01&lt;/h1&gt;" style="text;html=1;strokeColor=none;fillColor=none;align=center;verticalAlign=middle;whiteSpace=wrap;rounded=0;fontFamily=Times New Roman;fontSize=31;" parent="mmlGPViRKiMGI0Nl_u0o-15" vertex="1">
          <mxGeometry x="76" y="15" width="160" height="10" as="geometry" />
        </mxCell>
        <mxCell id="mmlGPViRKiMGI0Nl_u0o-34" value="&lt;h1 style=&quot;font-size: 15px&quot;&gt;busy=1&lt;/h1&gt;" style="text;html=1;strokeColor=none;fillColor=none;align=center;verticalAlign=middle;whiteSpace=wrap;rounded=0;fontFamily=Times New Roman;fontSize=31;" parent="mmlGPViRKiMGI0Nl_u0o-5" vertex="1">
          <mxGeometry x="62" y="37" width="160" height="10" as="geometry" />
        </mxCell>
        <mxCell id="mmlGPViRKiMGI0Nl_u0o-13" style="edgeStyle=orthogonalEdgeStyle;rounded=0;orthogonalLoop=1;jettySize=auto;html=1;exitX=1;exitY=0.5;exitDx=0;exitDy=0;entryX=0;entryY=0.5;entryDx=0;entryDy=0;" parent="1" source="mmlGPViRKiMGI0Nl_u0o-9" target="mmlGPViRKiMGI0Nl_u0o-17" edge="1">
          <mxGeometry relative="1" as="geometry">
            <mxPoint x="510" y="138" as="targetPoint" />
          </mxGeometry>
        </mxCell>
        <mxCell id="mmlGPViRKiMGI0Nl_u0o-16" value="" style="group" parent="1" vertex="1" connectable="0">
          <mxGeometry x="518" y="40" width="240" height="80" as="geometry" />
        </mxCell>
        <mxCell id="mmlGPViRKiMGI0Nl_u0o-17" value="&lt;h1 style=&quot;font-size: 31px&quot;&gt;C&lt;/h1&gt;" style="ellipse;whiteSpace=wrap;html=1;aspect=fixed;" parent="mmlGPViRKiMGI0Nl_u0o-16" vertex="1">
          <mxGeometry y="58" width="80" height="80" as="geometry" />
        </mxCell>
        <mxCell id="mmlGPViRKiMGI0Nl_u0o-19" style="edgeStyle=orthogonalEdgeStyle;rounded=0;orthogonalLoop=1;jettySize=auto;html=1;entryX=0.5;entryY=0;entryDx=0;entryDy=0;" parent="1" source="mmlGPViRKiMGI0Nl_u0o-17" target="mmlGPViRKiMGI0Nl_u0o-21" edge="1">
          <mxGeometry relative="1" as="geometry">
            <mxPoint x="556" y="293" as="targetPoint" />
            <Array as="points">
              <mxPoint x="558" y="203" />
              <mxPoint x="558" y="203" />
            </Array>
          </mxGeometry>
        </mxCell>
        <mxCell id="mmlGPViRKiMGI0Nl_u0o-20" value="" style="group" parent="1" vertex="1" connectable="0">
          <mxGeometry x="518" y="251" width="240" height="80" as="geometry" />
        </mxCell>
        <mxCell id="mmlGPViRKiMGI0Nl_u0o-21" value="&lt;h1 style=&quot;font-size: 31px&quot;&gt;D&lt;/h1&gt;" style="ellipse;whiteSpace=wrap;html=1;aspect=fixed;" parent="mmlGPViRKiMGI0Nl_u0o-20" vertex="1">
          <mxGeometry y="58" width="80" height="80" as="geometry" />
        </mxCell>
        <mxCell id="mmlGPViRKiMGI0Nl_u0o-23" style="edgeStyle=orthogonalEdgeStyle;rounded=0;orthogonalLoop=1;jettySize=auto;html=1;entryX=1;entryY=0.5;entryDx=0;entryDy=0;" parent="1" target="mmlGPViRKiMGI0Nl_u0o-25" edge="1">
          <mxGeometry relative="1" as="geometry">
            <mxPoint x="362" y="342" as="targetPoint" />
            <mxPoint x="516" y="349" as="sourcePoint" />
          </mxGeometry>
        </mxCell>
        <mxCell id="mmlGPViRKiMGI0Nl_u0o-24" value="" style="group" parent="1" vertex="1" connectable="0">
          <mxGeometry x="279" y="309" width="242" height="80" as="geometry" />
        </mxCell>
        <mxCell id="mmlGPViRKiMGI0Nl_u0o-25" value="&lt;h1 style=&quot;font-size: 31px&quot;&gt;E&lt;/h1&gt;" style="ellipse;whiteSpace=wrap;html=1;aspect=fixed;" parent="mmlGPViRKiMGI0Nl_u0o-24" vertex="1">
          <mxGeometry width="80" height="80" as="geometry" />
        </mxCell>
        <mxCell id="mmlGPViRKiMGI0Nl_u0o-22" value="&lt;h1 style=&quot;font-size: 15px&quot;&gt;a=1, b=1, s_sel=10&lt;/h1&gt;" style="text;html=1;strokeColor=none;fillColor=none;align=center;verticalAlign=middle;whiteSpace=wrap;rounded=0;fontFamily=Times New Roman;fontSize=31;" parent="mmlGPViRKiMGI0Nl_u0o-24" vertex="1">
          <mxGeometry x="82" y="18" width="160" height="10" as="geometry" />
        </mxCell>
        <mxCell id="mmlGPViRKiMGI0Nl_u0o-27" style="edgeStyle=orthogonalEdgeStyle;rounded=0;orthogonalLoop=1;jettySize=auto;html=1;exitX=0;exitY=0.5;exitDx=0;exitDy=0;" parent="1" source="mmlGPViRKiMGI0Nl_u0o-25" edge="1">
          <mxGeometry relative="1" as="geometry">
            <mxPoint x="86" y="178.0000244140625" as="targetPoint" />
            <mxPoint x="276" y="331.6" as="sourcePoint" />
            <Array as="points">
              <mxPoint x="86" y="349" />
            </Array>
          </mxGeometry>
        </mxCell>
        <mxCell id="mmlGPViRKiMGI0Nl_u0o-18" value="&lt;h1 style=&quot;font-size: 15px&quot;&gt;a=0, b=1, s_sel=01&lt;/h1&gt;" style="text;html=1;strokeColor=none;fillColor=none;align=center;verticalAlign=middle;whiteSpace=wrap;rounded=0;fontFamily=Times New Roman;fontSize=31;" parent="1" vertex="1">
          <mxGeometry x="558" y="231" width="160" height="10" as="geometry" />
        </mxCell>
        <mxCell id="mmlGPViRKiMGI0Nl_u0o-32" value="&lt;h1 style=&quot;font-size: 15px&quot;&gt;busy=0&lt;/h1&gt;" style="text;html=1;strokeColor=none;fillColor=none;align=center;verticalAlign=middle;whiteSpace=wrap;rounded=0;fontFamily=Times New Roman;fontSize=31;" parent="1" vertex="1">
          <mxGeometry x="97" y="299" width="160" height="10" as="geometry" />
        </mxCell>
        <mxCell id="mmlGPViRKiMGI0Nl_u0o-35" value="&lt;h1 style=&quot;font-size: 15px&quot;&gt;busy=1&lt;/h1&gt;" style="text;html=1;strokeColor=none;fillColor=none;align=center;verticalAlign=middle;whiteSpace=wrap;rounded=0;fontFamily=Times New Roman;fontSize=31;" parent="1" vertex="1">
          <mxGeometry x="555" y="211" width="160" height="10" as="geometry" />
        </mxCell>
        <mxCell id="mmlGPViRKiMGI0Nl_u0o-36" value="&lt;h1 style=&quot;font-size: 15px&quot;&gt;busy=1&lt;/h1&gt;" style="text;html=1;strokeColor=none;fillColor=none;align=center;verticalAlign=middle;whiteSpace=wrap;rounded=0;fontFamily=Times New Roman;fontSize=31;" parent="1" vertex="1">
          <mxGeometry x="355" y="305" width="160" height="10" as="geometry" />
        </mxCell>
        <mxCell id="mmlGPViRKiMGI0Nl_u0o-39" value="&lt;h1 style=&quot;font-size: 15px&quot;&gt;upd_production=1&lt;/h1&gt;" style="text;html=1;strokeColor=none;fillColor=none;align=center;verticalAlign=middle;whiteSpace=wrap;rounded=0;fontFamily=Times New Roman;fontSize=31;" parent="1" vertex="1">
          <mxGeometry x="97" y="325" width="160" height="10" as="geometry" />
        </mxCell>
        <mxCell id="dh1mfTihTAKXQSbTQ7IS-3" value="a_msw_is_0 = 1" style="text;html=1;align=center;verticalAlign=middle;resizable=0;points=[];autosize=1;strokeColor=#99FFCC;fillColor=#ffe6cc;" vertex="1" parent="1">
          <mxGeometry x="365" y="262" width="97" height="18" as="geometry" />
        </mxCell>
        <mxCell id="dh1mfTihTAKXQSbTQ7IS-2" value="b_msw_is_0 = 0" style="text;html=1;align=center;verticalAlign=middle;resizable=0;points=[];autosize=1;strokeColor=none;fillColor=#ffe6cc;" vertex="1" parent="1">
          <mxGeometry x="365" y="233" width="97" height="18" as="geometry" />
        </mxCell>
        <mxCell id="dh1mfTihTAKXQSbTQ7IS-4" style="edgeStyle=orthogonalEdgeStyle;rounded=0;orthogonalLoop=1;jettySize=auto;html=1;exitX=1;exitY=1;exitDx=0;exitDy=0;entryX=0.5;entryY=0;entryDx=0;entryDy=0;" edge="1" parent="1" source="mmlGPViRKiMGI0Nl_u0o-9" target="mmlGPViRKiMGI0Nl_u0o-21">
          <mxGeometry relative="1" as="geometry">
            <Array as="points">
              <mxPoint x="348" y="285" />
              <mxPoint x="518" y="285" />
              <mxPoint x="518" y="309" />
            </Array>
          </mxGeometry>
        </mxCell>
        <mxCell id="dh1mfTihTAKXQSbTQ7IS-5" value="&lt;h1 style=&quot;font-size: 15px&quot;&gt;a=0, b=1, s_sel=01&lt;/h1&gt;" style="text;html=1;strokeColor=none;fillColor=none;align=center;verticalAlign=middle;whiteSpace=wrap;rounded=0;fontFamily=Times New Roman;fontSize=31;" vertex="1" parent="1">
          <mxGeometry x="343" y="216" width="160" height="10" as="geometry" />
        </mxCell>
        <mxCell id="dh1mfTihTAKXQSbTQ7IS-6" value="&lt;h1 style=&quot;font-size: 15px&quot;&gt;busy=1&lt;/h1&gt;" style="text;html=1;strokeColor=none;fillColor=none;align=center;verticalAlign=middle;whiteSpace=wrap;rounded=0;fontFamily=Times New Roman;fontSize=31;" vertex="1" parent="1">
          <mxGeometry x="340" y="196" width="160" height="10" as="geometry" />
        </mxCell>
        <mxCell id="dh1mfTihTAKXQSbTQ7IS-10" style="edgeStyle=orthogonalEdgeStyle;rounded=0;orthogonalLoop=1;jettySize=auto;html=1;entryX=0.946;entryY=0.767;entryDx=0;entryDy=0;entryPerimeter=0;" edge="1" parent="1" source="mmlGPViRKiMGI0Nl_u0o-9" target="A2qnpwEKN-Jw2Tp_X-vN-1">
          <mxGeometry relative="1" as="geometry">
            <Array as="points">
              <mxPoint x="247" y="159" />
              <mxPoint x="247" y="159" />
            </Array>
          </mxGeometry>
        </mxCell>
        <mxCell id="dh1mfTihTAKXQSbTQ7IS-17" style="edgeStyle=orthogonalEdgeStyle;rounded=0;orthogonalLoop=1;jettySize=auto;html=1;" edge="1" parent="1" source="mmlGPViRKiMGI0Nl_u0o-17" target="mmlGPViRKiMGI0Nl_u0o-25">
          <mxGeometry relative="1" as="geometry">
            <Array as="points">
              <mxPoint x="780" y="138" />
              <mxPoint x="780" y="447" />
              <mxPoint x="319" y="447" />
            </Array>
          </mxGeometry>
        </mxCell>
        <mxCell id="dh1mfTihTAKXQSbTQ7IS-18" value="a_msw_is_0 = 0" style="text;html=1;align=center;verticalAlign=middle;resizable=0;points=[];autosize=1;strokeColor=#99FFCC;fillColor=#ffe6cc;" vertex="1" parent="1">
          <mxGeometry x="357" y="425" width="97" height="18" as="geometry" />
        </mxCell>
        <mxCell id="dh1mfTihTAKXQSbTQ7IS-19" value="b_msw_is_0 = 1" style="text;html=1;align=center;verticalAlign=middle;resizable=0;points=[];autosize=1;strokeColor=none;fillColor=#ffe6cc;" vertex="1" parent="1">
          <mxGeometry x="357" y="396" width="97" height="18" as="geometry" />
        </mxCell>
        <mxCell id="dh1mfTihTAKXQSbTQ7IS-22" value="&lt;h1 style=&quot;font-size: 15px&quot;&gt;a=1, b=1, s_sel=10&lt;/h1&gt;" style="text;html=1;strokeColor=none;fillColor=none;align=center;verticalAlign=middle;whiteSpace=wrap;rounded=0;fontFamily=Times New Roman;fontSize=31;" vertex="1" parent="1">
          <mxGeometry x="464" y="433" width="160" height="10" as="geometry" />
        </mxCell>
        <mxCell id="dh1mfTihTAKXQSbTQ7IS-23" value="&lt;h1 style=&quot;font-size: 15px&quot;&gt;busy=1&lt;/h1&gt;" style="text;html=1;strokeColor=none;fillColor=none;align=center;verticalAlign=middle;whiteSpace=wrap;rounded=0;fontFamily=Times New Roman;fontSize=31;" vertex="1" parent="1">
          <mxGeometry x="458" y="411" width="160" height="10" as="geometry" />
        </mxCell>
      </root>
    </mxGraphModel>
  </diagram>
</mxfile>
